<?xml version="1.0" encoding="UTF-8" standalone="no"?>
<svg
   xmlns:dc="http://purl.org/dc/elements/1.1/"
   xmlns:cc="http://web.resource.org/cc/"
   xmlns:rdf="http://www.w3.org/1999/02/22-rdf-syntax-ns#"
   xmlns:svg="http://www.w3.org/2000/svg"
   xmlns="http://www.w3.org/2000/svg"
   xmlns:sodipodi="http://sodipodi.sourceforge.net/DTD/sodipodi-0.dtd"
   xmlns:inkscape="http://www.inkscape.org/namespaces/inkscape"
   version="1.0"
   baseProfile="full"
   preserveAspectRatio="xMidYMid meet"
   zoomAndPan="magnify"
   id="Flag_of_the_United_Kingdom_3-5"
   viewBox="-12.5 -7.5 25 15"
   width="300"
   height="200"
   sodipodi:version="0.32"
   inkscape:version="0.45.1"
   sodipodi:docname="Flag of the United Kingdom (2-3).svg"
   inkscape:output_extension="org.inkscape.output.svg.inkscape"
   sodipodi:docbase="C:\Documents and Settings\Sigurd\Skrivebord\BILDER TIL WIKIPEDIA">
  <metadata
     id="metadata2264">
    <rdf:RDF>
      <cc:Work
         rdf:about="">
        <dc:format>image/svg+xml</dc:format>
        <dc:type
           rdf:resource="http://purl.org/dc/dcmitype/StillImage" />
      </cc:Work>
    </rdf:RDF>
  </metadata>
  <sodipodi:namedview
     inkscape:window-height="975"
     inkscape:window-width="1280"
     inkscape:pageshadow="2"
     inkscape:pageopacity="0.0"
     guidetolerance="10.0"
     gridtolerance="10.0"
     objecttolerance="10.0"
     borderopacity="1.0"
     bordercolor="#666666"
     pagecolor="#ffffff"
     id="base"
     height="200px"
     width="300px"
     inkscape:zoom="2.4507667"
     inkscape:cx="175.86353"
     inkscape:cy="113.06662"
     inkscape:window-x="-4"
     inkscape:window-y="-4"
     inkscape:current-layer="Flag_of_the_United_Kingdom_3-5" />
  <defs
     id="defs2247">
    <clipPath
       id="border">
      <rect
         x="-12.5"
         y="-7.5"
         width="25"
         height="15"
         id="rect2250" />
    </clipPath>
  </defs>
  <g
     clip-path="url(#border)"
     id="g2252"
     transform="matrix(1,0,0,1.1110763,0,1.7001483e-2)">
    <rect
       style="opacity:1;fill:#00247d;fill-opacity:1;stroke:none;stroke-width:7.3829999;stroke-linecap:square;stroke-linejoin:bevel;stroke-miterlimit:4;stroke-dasharray:none;stroke-opacity:1"
       id="rect2269"
       width="25.264202"
       height="18.633625"
       x="-12.636011"
       y="-9.7562447" />
    <path
       d="M -25,-15 L 25,15 M -25,15 L 25,-15"
       id="diags_white"
       style="stroke:#ffffff;stroke-width:3" />
    <path
       d="M -25,-15 L 25,15 M -25,15 L 25,-15"
       id="diags_red"
       style="stroke:#cf142b;stroke-width:2" />
    <path
       d="M 0,0 L 25,15 L 23,15 L -2,0 M 0,0 L 25,-15 L 27,-15 L 2,0 M 0,0 L -25,15 L -27,15 L -2,0 M 0,0 L -25,-15 L -23,-15 L 2,0"
       id="eraser_white"
       style="fill:#ffffff;stroke:none" />
    <comment
       id="comment2259">I think the above two lines give the simplest way to make the diagonals</comment>
    <path
       d="M -25,0 L 25,0 M 0,-15 L 0,15"
       id="cross_white"
       style="stroke:#ffffff;stroke-width:5" />
    <path
       d="M -25,0 L 25,0 M 0,-15 L 0,15"
       id="cross_red"
       style="stroke:#cf142b;stroke-width:3" />
  </g>
</svg>
